
<svg width="38px" height="28px" viewBox="0 0 38 28" version="1.1" xmlns="http://www.w3.org/2000/svg" xmlns:xlink="http://www.w3.org/1999/xlink">
    <defs>
        <style type="text/css">
            #twitter-icon {
                fill: #228BFF;
                fill-opacity: 0.1;
                stroke: #228BFF;
            }

            @media only screen and (max-width: 45.5px) {
                #twitter-icon {
                    fill: #FFFFFF;
                    fill-opacity: 0.8;
                    stroke: none;
                }
            }
        </style>
    </defs>
    <g id="Symbols" stroke="none" stroke-width="1" fill="none" fill-rule="evenodd" fill-opacity="0.1">
        <g id="twitter-icon" transform="translate(-12.000000, -18.000000)" stroke-width="2">
            <path d="M47,22.8945996 C46.1624365,24.1133784 45.1154822,25.1988532 43.9162437,26.0748505 C43.9352792,26.3414583 43.9352792,26.6080662 43.9352792,26.8746741 C43.9352792,35.0062138 37.748731,44.3755756 26.4416244,44.3755756 C22.9581218,44.3755756 19.7220812,43.3662745 17,41.61428 C17.4949239,41.6714102 17.9708122,41.6904536 18.4847716,41.6904536 C21.3591371,41.6904536 24.0050761,40.7192393 26.1180203,39.0624619 C23.4149746,39.0053316 21.1497462,37.2342937 20.3692893,34.7967361 C20.75,34.8538664 21.1307107,34.8919532 21.5304569,34.8919532 C22.0824873,34.8919532 22.6345178,34.8157796 23.1484772,34.6824756 C20.3312183,34.1111731 18.2182741,31.6355287 18.2182741,28.645712 L18.2182741,28.5695383 C19.036802,29.0265804 19.9885787,29.3122316 20.9974619,29.3503185 C19.3413706,28.2458002 18.2563452,26.3605018 18.2563452,24.2276389 C18.2563452,23.0850338 18.5609137,22.0376458 19.0939086,21.1235617 C22.1205584,24.8560717 26.6700508,27.2936293 31.7715736,27.5602371 C31.6763959,27.1031951 31.6192893,26.6271096 31.6192893,26.1510242 C31.6192893,22.7612957 34.3604061,20 37.7677665,20 C39.5380711,20 41.1370558,20.7426933 42.2601523,21.9424287 C43.6497462,21.6758208 44.9822335,21.1616485 46.1624365,20.457042 C45.7055838,21.8852984 44.7347716,23.0850338 43.4593909,23.8467705 C44.6967005,23.7134666 45.8959391,23.3706851 47,22.8945996 Z" id="twitter"></path>
        </g>
    </g>
</svg>
