
<svg width="66px" height="66px" viewBox="0 0 66 66" version="1.1" xmlns="http://www.w3.org/2000/svg" xmlns:xlink="http://www.w3.org/1999/xlink">
    <g id="Symbols" stroke="none" stroke-width="1" fill="none" fill-rule="evenodd">
        <g id="quote-box" transform="translate(-1077.000000, -119.000000)">
            <g id="Group" transform="translate(1078.000000, 120.000000)">
                <circle id="btnBg" stroke="#228BFF" fill-opacity="0.1" fill="#FFFFFF" cx="32" cy="32" r="32"></circle>
                <g id="chevron" transform="translate(20.800000, 21.600000)" fill="#228BFF" fill-rule="nonzero">
                    <path d="M14.1566809,0.484365535 L22.5459666,9.44988278 C23.0476818,9.98605911 23.0476818,10.8139409 22.5459666,11.3501172 L14.1566809,20.3156345 C13.6262694,20.8824781 12.7317976,20.9166137 12.1588223,20.3918784 C11.5858469,19.8671432 11.5513421,18.9822437 12.0817535,18.4154 L18.2732499,11.7978555 L1.45,11.7986208 C0.669207392,11.7986208 0.0362499222,11.1724369 0.0362499222,10.4 C0.0362499222,9.62756308 0.669207392,9.00137923 1.45,9.00137923 L18.2722499,9.0008555 L12.0817535,2.38459998 C11.5513421,1.81775634 11.5858469,0.932856813 12.1588223,0.40812156 C12.7317976,-0.116613693 13.6262694,-0.0824781029 14.1566809,0.484365535 Z" id="Combined-Shape"></path>
                </g>
            </g>
        </g>
    </g>
</svg>